<svg xmlns="http://www.w3.org/2000/svg" viewBox="0 0 200 80" fill="#0071c5">
  <!-- Intel Logo -->
  <rect x="10" y="25" width="8" height="30" rx="1"/>
  
  <path d="M30 25 h8 v30 h-8 z M30 32 q0-7 8-7 v5 q-2 0-2 2 v13 h-6 z"/>
  
  <path d="M55 25 v30 h-8 v-20 q0-5-4-5 v-5 q8 0 12 8 v-8 z"/>
  
  <path d="M70 30 v18 q0 4 3 4 v3 q-8 0-10-7 v7 h-8 v-25 h8 v15 q0-5 4-5 v5 q-2 0-2 3 z"/>
  
  <path d="M95 43 h-15 q0 4 4 4 q3 0 4-2 h7 q-2 10-11 10 q-10 0-10-15 q0-15 10-15 q10 0 11 15 z M88 38 q0-4-4-4 q-4 0-4 4 z"/>
  
  <ellipse cx="105" cy="50" rx="3" ry="3"/>
  
  <circle cx="180" cy="40" r="15" fill="none" stroke="#0071c5" stroke-width="2"/>
  <circle cx="180" cy="40" r="10" fill="none" stroke="#0071c5" stroke-width="1"/>
  <circle cx="180" cy="40" r="5" fill="#0071c5"/>
</svg>
